<svg width="800" height="800" viewBox="0 0 800 800" fill="none" xmlns="http://www.w3.org/2000/svg">
<path fill-rule="evenodd" clip-rule="evenodd" d="M400 66.6665C584.097 66.6665 733.334 215.903 733.334 400C733.334 584.094 584.097 733.333 400 733.333C215.906 733.333 66.667 584.094 66.667 400C66.667 215.903 215.906 66.6665 400 66.6665ZM433.407 366.667H366.74V566.667H433.407V366.667ZM400.339 225C376.036 225 358.407 242.532 358.407 266.204C358.407 290.835 375.571 308.333 400.339 308.333C424.144 308.333 441.74 290.835 441.74 266.667C441.74 242.532 424.144 225 400.339 225Z" fill="#292D32"/>
</svg>
