<svg width="800" height="800" viewBox="0 0 800 800" fill="none" xmlns="http://www.w3.org/2000/svg">
<g clip-path="url(#clip0_1399_10)">
<path fill-rule="evenodd" clip-rule="evenodd" d="M466.437 114.456C428.547 80.777 371.454 80.777 333.564 114.456L77.8554 341.753C64.0957 353.983 62.8564 375.053 75.0871 388.813C87.3177 402.57 108.387 403.81 122.146 391.58L133.334 381.637V568.86C133.332 598.41 133.331 623.87 136.072 644.26C139.01 666.11 145.635 687.057 162.623 704.043C179.612 721.033 200.557 727.657 222.408 730.597C242.796 733.337 268.257 733.333 297.806 733.333H502.194C531.744 733.333 557.204 733.337 577.594 730.597C599.444 727.657 620.39 721.033 637.377 704.043C654.367 687.057 660.99 666.11 663.93 644.26C666.67 623.87 666.67 598.41 666.667 568.863V381.637L677.854 391.58C691.614 403.81 712.684 402.57 724.914 388.813C737.144 375.053 735.907 353.983 722.147 341.753L466.437 114.456ZM400 533.333C381.59 533.333 366.667 548.257 366.667 566.667V633.333C366.667 651.743 351.744 666.667 333.334 666.667C314.924 666.667 300 651.743 300 633.333V566.667C300 511.437 344.77 466.667 400 466.667C455.23 466.667 500 511.437 500 566.667V633.333C500 651.743 485.077 666.667 466.667 666.667C448.257 666.667 433.334 651.743 433.334 633.333V566.667C433.334 548.257 418.41 533.333 400 533.333Z" fill="#292D32"/>
</g>
<defs>
<clipPath id="clip0_1399_10">
<rect width="800" height="800" fill="white"/>
</clipPath>
</defs>
</svg>
