<svg width="800" height="800" viewBox="0 0 800 800" fill="none" xmlns="http://www.w3.org/2000/svg">
<path d="M123.809 485.714V561.905C124.114 615.466 149.409 607.143 168.152 591.066L276.19 493.524V542.857C276.19 589.143 286.857 600 333.333 600H504.762C504.762 600 603.981 716.666 604.762 715.886C619.047 733.333 657.733 727.39 657.142 695.238V600H714.285C760.952 600 771.428 588.4 771.428 542.857V257.143C771.428 211.428 760.19 200 714.285 200H523.809V161.905C523.809 114.857 515.047 104.762 466.666 104.762H66.6663C21.7139 104.762 9.52344 114.476 9.52344 161.905V409.524C9.52344 455.981 19.9996 485.714 66.6663 485.714H123.809ZM600 542.857V632.781L523.809 542.857H352.381C338.095 542.857 333.333 537.714 333.333 523.809V276.19C333.333 263.428 339.238 257.143 352.381 257.143H695.238C708.362 257.143 714.285 264.19 714.285 275.047V523.809C714.285 537.543 707.447 542.857 695.238 542.857H600Z" fill="#292D32"/>
</svg>
