<!-- <?xml version="1.0" encoding="UTF-8"?>
<!DOCTYPE svg PUBLIC "-//W3C//DTD SVG 1.1//EN" "http://www.w3.org/Graphics/SVG/1.1/DTD/svg11.dtd"> -->
<!-- Creator: CorelDRAW 2021 (64-Bit) -->
<svg xmlns="http://www.w3.org/2000/svg" xml:space="preserve" width="297mm" height="210mm" version="1.1" style="shape-rendering:geometricPrecision; text-rendering:geometricPrecision; image-rendering:optimizeQuality; fill-rule:evenodd; clip-rule:evenodd"
viewBox="0 0 29700 21000"
 xmlns:xlink="http://www.w3.org/1999/xlink"
 xmlns:xodm="http://www.corel.com/coreldraw/odm/2003">
 <defs>
  <style type="text/css">
   <![CDATA[
    .fil0 {fill:#2B2A29;fill-rule:nonzero}
   ]]>
  </style>
 </defs>
 <g id="Layer_x0020_1">
  <metadata id="CorelCorpID_0Corel-Layer"/>
  <g id="_2147564667056">
   <path class="fil0" d="M24821.84 5458.68c-1644.25,0 -2887.48,1251.27 -2887.48,2839.35 0,1588.18 1243.23,2839.45 2887.48,2839.45 1652.29,0 2895.52,-1251.27 2895.52,-2839.45 0,-1588.08 -1243.23,-2839.35 -2895.52,-2839.35zm-6390.79 112.33l-1556.02 0 1828.73 2687.02 -1796.68 2767.21 1628.27 0 3801.85 -5454.23 -1556.03 0 -1179.03 1676.4 -1171.09 -1676.4zm1524.55 4326.01l729.31 1128.22 1628.27 0 -1487.23 -2277.59 -870.35 1149.37zm-11913.23 -4326.01l-1010.63 0 -1931.68 2911.5 -1939.72 -2911.5 -1003.93 0 0 5454.13 1356.81 0 -8.04 -2751.13 1217.88 1884.9 0 8.03 753.9 0 0 -8.03 1209.84 -1868.92 0 2735.15 1355.57 0 0 -5454.13zm2317.96 0l-1355.47 0 0 1134.15 1355.47 0 0 -1134.15zm-1355.47 1816.87l0 3637.26 1355.47 0 0 -3637.26 -1355.47 0zm5807.11 3637.26l1556.03 0 -1828.83 -2686.92 1796.67 -2767.21 -1628.17 0 -3801.84 5454.13 1555.93 0 1179.12 -1676.3 1171.09 1676.3zm-1524.55 -4326l-729.31 -1128.13 -1628.26 0 1487.22 2277.49 870.35 -1149.36zm11534.42 2228.11c-351.26,0 -603.58,-287.43 -603.58,-629.12 0,-341.79 252.32,-629.23 603.58,-629.23 351.36,0 603.68,287.44 603.68,629.23 0,341.69 -252.32,629.12 -603.68,629.12zm0 950.92c-882.31,0 -1515.93,-721.85 -1515.93,-1580.14 0,-858.2 633.62,-1580.04 1515.93,-1580.04 882.31,0 1515.94,721.84 1515.94,1580.04 0,858.29 -633.63,1580.14 -1515.94,1580.14z"/>
   <path class="fil0" d="M6861.46 13512.75c145.68,-49.31 233.08,-183.77 233.08,-342.86 0,-242.04 -188.23,-392.17 -504.2,-392.17l-661.09 0 0 1523.82 685.72 0c338.4,0 553.51,-168.06 553.51,-416.8 0,-181.52 -98.62,-331.69 -307.02,-371.99zm-298.05 -522.17c194.98,0 304.76,78.44 304.76,210.65 0,141.21 -112.03,237.53 -315.93,237.53l-380.95 0 0 -448.18 392.12 0zm42.6 1098.05l-434.72 0 0 -450.38 443.68 0c194.98,0 315.98,80.64 315.98,217.35 0,129.96 -114.29,233.03 -324.94,233.03zm1297.49 -867.23c-320.48,0 -542.34,242.04 -542.34,553.51 0,313.72 224.12,553.51 555.76,553.51 228.57,0 414.22,-112.04 481.04,-302.51l-254.72 0c-42.55,67.23 -120.99,98.61 -224.07,98.61 -197.18,0 -298.05,-121.04 -320.43,-280.13l825.73 0c44.86,-356.32 -171.4,-622.99 -520.97,-622.99zm2.21 197.23c163.59,0 275.63,91.87 289.09,264.42l-591.6 0c26.88,-147.92 127.75,-264.42 302.51,-264.42zm1510.39 654.33c-53.76,22.43 -116.54,40.35 -179.26,40.35 -130,0 -206.19,-64.98 -206.19,-217.36l0 -452.68 389.91 0 0 -194.98 -389.91 0 0 -387.67 -233.03 0 0 387.67 -248.75 0 0 194.98 248.75 0 0 452.68c0,271.13 143.42,432.47 412.29,432.47 71.73,0 147.92,-8.96 239.78,-42.55l-33.59 -212.91zm972.56 0c-53.77,22.43 -116.54,40.35 -179.27,40.35 -130,0 -206.19,-64.98 -206.19,-217.36l0 -452.68 389.92 0 0 -194.98 -389.92 0 0 -387.67 -233.03 0 0 387.67 -248.74 0 0 194.98 248.74 0 0 452.68c0,271.13 143.42,432.47 412.3,432.47 71.73,0 147.92,-8.96 239.78,-42.55l-33.59 -212.91zm701.43 -851.56c-320.48,0 -542.34,242.04 -542.34,553.51 0,313.72 224.11,553.51 555.76,553.51 228.57,0 414.22,-112.04 481.04,-302.51l-254.72 0c-42.55,67.23 -121,98.61 -224.07,98.61 -197.19,0 -298.05,-121.04 -320.43,-280.13l825.73 0c44.85,-356.32 -171.4,-622.99 -520.97,-622.99zm2.21 197.23c163.59,0 275.62,91.87 289.09,264.42l-591.6 0c26.88,-147.92 127.75,-264.42 302.51,-264.42zm1006.19 -26.92l0 -143.42 -233.07 0 0 1053.25 233.07 0 0 -663.29c94.11,-123.3 221.82,-186.02 389.91,-192.73l0 -219.61c-161.34,0 -293.55,60.47 -389.91,165.8zm2283.47 -613.99l-1319.92 0 0 221.87 540.09 0 0 1301.95 239.78 0 0 -1301.95 540.05 0 0 -221.87zm445.98 443.68c-327.19,0 -560.27,230.83 -560.27,553.51 0,322.69 233.08,553.51 560.27,553.51 327.14,0 560.21,-230.82 560.21,-553.51 0,-322.68 -233.07,-553.51 -560.21,-553.51zm0 896.37c-190.48,0 -327.19,-145.63 -327.19,-342.86 0,-199.44 136.71,-342.86 327.19,-342.86 190.47,0 327.14,143.42 327.14,342.86 0,197.23 -136.67,342.86 -327.14,342.86zm1631.38 -869.48l0 82.94c-89.65,-69.48 -208.39,-109.83 -342.85,-109.83 -295.8,0 -528.88,219.61 -528.88,533.34 0,282.38 233.08,519.91 528.88,519.91 134.46,0 253.2,-40.34 342.85,-109.83l0 165.85c0,192.73 -125.49,302.51 -302.51,302.51 -172.55,0 -284.58,-87.4 -304.76,-215.11l-237.53 0c29.13,250.95 246.49,425.76 542.29,425.76 315.98,0 533.34,-192.73 533.34,-513.16l0 -1082.38 -230.83 0zm-309.26 824.67c-194.94,0 -329.39,-156.88 -329.39,-318.22 0,-194.94 134.45,-333.9 329.39,-333.9 116.54,0 230.82,47.06 309.26,163.59l0 327.19c-78.44,116.54 -192.72,161.34 -309.26,161.34zm1333.38 -851.56c-320.48,0 -542.34,242.04 -542.34,553.51 0,313.72 224.11,553.51 555.76,553.51 228.57,0 414.22,-112.04 481.04,-302.51l-254.72 0c-42.55,67.23 -121,98.61 -224.07,98.61 -197.18,0 -298.05,-121.04 -320.43,-280.13l825.73 0c44.85,-356.32 -171.4,-622.99 -520.97,-622.99zm2.21 197.23c163.59,0 275.63,91.87 289.09,264.42l-591.6 0c26.88,-147.92 127.75,-264.42 302.51,-264.42zm1510.39 654.33c-53.76,22.43 -116.54,40.35 -179.26,40.35 -130,0 -206.2,-64.98 -206.2,-217.36l0 -452.68 389.92 0 0 -194.98 -389.92 0 0 -387.67 -233.02 0 0 387.67 -248.75 0 0 194.98 248.75 0 0 452.68c0,271.13 143.42,432.47 412.29,432.47 71.73,0 147.92,-8.96 239.78,-42.55l-33.59 -212.91zm840.35 -851.56c-134.46,0 -248.75,42.6 -340.61,121.04l0 -631.95 -233.07 0 0 1591.05 233.07 0 0 -710.4c82.9,-103.07 192.69,-159.09 293.55,-159.09 170.31,0 273.38,103.08 273.38,295.8l0 573.69 233.08 0 0 -587.1c0,-304.77 -186.02,-493.04 -459.4,-493.04zm1243.73 0c-320.48,0 -542.34,242.04 -542.34,553.51 0,313.72 224.11,553.51 555.76,553.51 228.57,0 414.22,-112.04 481.04,-302.51l-254.72 0c-42.56,67.23 -121,98.61 -224.07,98.61 -197.19,0 -298.06,-121.04 -320.44,-280.13l825.74 0c44.85,-356.32 -171.41,-622.99 -520.97,-622.99zm2.2 197.23c163.6,0 275.63,91.87 289.1,264.42l-591.61 0c26.88,-147.92 127.75,-264.42 302.51,-264.42zm1006.2 -26.92l0 -143.42 -233.08 0 0 1053.25 233.08 0 0 -663.29c94.11,-123.3 221.81,-186.02 389.91,-192.73l0 -219.61c-161.34,0 -293.55,60.47 -389.91,165.8zm882.9 -613.99l-244.29 0 17.97 1066.67 208.4 0 17.92 -1066.67zm-123.25 1539.49c82.9,0 147.88,-62.73 147.88,-143.42 0,-80.65 -64.98,-141.17 -147.88,-141.17 -78.44,0 -145.67,60.52 -145.67,141.17 0,80.69 67.23,143.42 145.67,143.42z"/>
  </g>
 </g>
</svg>
